P3
80 80
255
0 1 0 0 1 0 0 1 0 0 1 0 0 1 0 0 1 0 0 1 0 0 1 0 
0 1 0 0 1 0 0 1 0 0 1 0 0 1 0 0 1 0 0 1 0 0 1 0 
0 1 0 0 1 0 0 1 0 0 1 0 0 1 0 0 1 0 0 1 0 0 1 0 
0 1 0 0 1 0 0 1 0 0 1 0 0 1 0 0 1 0 0 1 0 0 1 0 
0 1 0 0 1 0 0 1 0 0 1 0 0 1 0 0 1 0 0 1 0 3 3 16 
10 34 86 0 63 90 0 1 0 0 1 0 0 1 0 0 1 0 0 1 0 0 1 0 
0 1 0 0 1 0 0 1 0 0 1 0 0 1 0 0 1 0 0 1 0 0 1 0 
0 1 0 0 1 0 0 1 0 0 1 0 0 1 0 0 1 0 0 1 0 0 1 0 
0 1 0 0 1 0 0 1 0 0 1 0 0 1 0 0 1 0 0 1 0 0 1 0 
0 1 0 0 1 0 0 1 0 0 1 0 0 1 0 0 1 0 0 1 0 0 1 0 

0 1 0 0 1 0 0 1 0 0 1 0 0 1 0 0 1 0 0 1 0 0 1 0 
0 1 0 0 1 0 0 1 0 0 1 0 0 1 0 0 1 0 0 1 0 0 1 0 
0 1 0 0 1 0 0 1 0 0 1 0 0 1 0 0 1 0 0 1 0 0 1 0 
0 1 0 0 1 0 0 1 0 0 1 0 0 1 0 0 1 0 0 1 0 0 1 0 
0 1 0 0 1 0 0 1 0 0 1 0 0 1 0 0 1 0 0 1 0 0 14 41 
3 43 94 0 104 147 0 11 19 0 1 0 0 1 0 0 1 0 0 1 0 0 1 0 
0 1 0 0 1 0 0 1 0 0 1 0 0 1 0 0 1 0 0 1 0 0 1 0 
0 1 0 0 1 0 0 1 0 0 1 0 0 1 0 0 1 0 0 1 0 0 1 0 
0 1 0 0 1 0 0 1 0 0 1 0 0 1 0 0 1 0 0 1 0 0 1 0 
0 1 0 0 1 0 0 1 0 0 1 0 0 1 0 0 1 0 0 1 0 0 1 0 

0 1 0 0 1 0 0 1 0 0 1 0 0 1 0 0 1 0 0 1 0 0 1 0 
0 1 0 0 1 0 0 1 0 0 1 0 0 1 0 0 1 0 0 1 0 0 1 0 
0 1 0 0 1 0 0 1 0 0 1 0 0 1 0 0 1 0 0 1 0 0 1 0 
0 1 0 0 1 0 0 1 0 0 1 0 0 1 0 0 1 0 0 1 0 0 1 0 
0 1 0 0 1 0 0 1 0 0 1 0 0 1 0 0 1 0 0 1 0 2 19 70 
0 45 107 9 124 173 0 17 22 0 1 0 0 1 0 0 1 0 0 1 0 0 1 0 
0 1 0 0 1 0 0 1 0 0 1 0 0 1 0 0 1 0 0 1 0 0 1 0 
0 1 0 0 1 0 0 1 0 0 1 0 0 1 0 0 1 0 0 1 0 0 1 0 
0 1 0 0 1 0 0 1 0 0 1 0 0 1 0 0 1 0 0 1 0 0 1 0 
0 1 0 0 1 0 0 1 0 0 1 0 0 1 0 0 1 0 0 1 0 0 1 0 

0 1 0 0 1 0 0 1 0 0 1 0 0 1 0 0 1 0 0 1 0 0 1 0 
0 1 0 0 1 0 0 1 0 0 1 0 0 1 0 0 1 0 0 1 0 0 1 0 
0 1 0 0 1 0 0 1 0 0 1 0 0 1 0 0 1 0 0 1 0 0 1 0 
0 1 0 0 1 0 0 1 0 0 1 0 0 1 0 0 1 0 0 1 0 0 1 0 
0 1 0 0 1 0 0 1 0 0 1 0 0 1 0 0 1 0 0 1 0 2 19 70 
0 45 107 0 140 194 0 40 56 0 1 0 0 1 0 0 1 0 0 1 0 0 1 0 
0 1 0 0 1 0 0 1 0 0 1 0 0 1 0 0 1 0 0 1 0 0 1 0 
0 1 0 0 1 0 0 1 0 0 1 0 0 1 0 0 1 0 0 1 0 0 1 0 
0 1 0 0 1 0 0 1 0 0 1 0 0 1 0 0 1 0 0 1 0 0 1 0 
0 1 0 0 1 0 0 1 0 0 1 0 0 1 0 0 1 0 0 1 0 0 1 0 

0 1 0 0 1 0 0 1 0 0 1 0 0 1 0 0 1 0 0 1 0 0 1 0 
0 1 0 0 1 0 0 1 0 0 1 0 0 1 0 0 1 0 0 1 0 0 1 0 
0 1 0 0 1 0 0 1 0 0 1 0 0 1 0 0 1 0 0 1 0 0 1 0 
0 1 0 0 1 0 0 1 0 0 1 0 0 1 0 0 1 0 0 1 0 0 1 0 
0 1 0 0 1 0 0 1 0 0 1 0 0 1 0 0 1 0 0 6 9 0 28 100 
0 45 107 0 156 217 0 65 86 0 1 0 0 1 0 0 1 0 0 1 0 0 1 0 
0 1 0 0 1 0 0 1 0 0 1 0 0 1 0 0 1 0 0 1 0 0 1 0 
0 1 0 0 1 0 0 1 0 0 1 0 0 1 0 0 1 0 0 1 0 0 1 0 
0 1 0 0 1 0 0 1 0 0 1 0 0 1 0 0 1 0 0 1 0 0 1 0 
0 1 0 0 1 0 0 1 0 0 1 0 0 1 0 0 1 0 0 1 0 0 1 0 

0 1 0 0 1 0 0 1 0 0 1 0 0 1 0 0 1 0 0 1 0 0 1 0 
0 1 0 0 1 0 0 1 0 0 1 0 0 1 0 0 1 0 0 1 0 0 1 0 
0 1 0 0 1 0 0 1 0 0 1 0 0 1 0 0 1 0 0 1 0 0 1 0 
0 1 0 0 1 0 0 1 0 0 1 0 0 1 0 0 1 0 0 1 0 0 1 0 
0 1 0 0 1 0 0 1 0 0 1 0 0 1 0 0 1 0 0 11 19 5 40 124 
0 45 107 0 156 217 0 90 122 0 1 0 0 1 0 0 1 0 0 1 0 0 1 0 
0 1 0 0 1 0 0 1 0 0 1 0 0 1 0 0 1 0 0 1 0 0 1 0 
0 1 0 0 1 0 0 1 0 0 1 0 0 1 0 0 1 0 0 1 0 0 1 0 
0 1 0 0 1 0 0 1 0 0 1 0 0 1 0 0 1 0 0 1 0 0 1 0 
0 1 0 0 1 0 0 1 0 0 1 0 0 1 0 0 1 0 0 1 0 0 1 0 

0 1 0 0 1 0 0 1 0 0 1 0 0 1 0 0 1 0 0 1 0 0 1 0 
0 1 0 0 1 0 0 1 0 0 1 0 0 1 0 0 1 0 0 1 0 0 1 0 
0 1 0 0 1 0 0 1 0 0 1 0 0 1 0 0 1 0 0 1 0 0 1 0 
0 1 0 0 1 0 0 1 0 0 1 0 0 1 0 0 1 0 0 1 0 0 1 0 
0 1 0 0 1 0 0 1 0 0 1 0 0 1 0 0 1 0 1 10 28 5 40 124 
0 51 140 0 161 234 14 127 170 3 9 12 0 1 0 0 1 0 0 1 0 0 1 0 
0 1 0 0 1 0 0 1 0 0 1 0 0 1 0 0 1 0 0 1 0 0 1 0 
0 1 0 0 1 0 0 1 0 0 1 0 0 1 0 0 1 0 0 1 0 0 1 0 
0 1 0 0 1 0 0 1 0 0 1 0 0 1 0 0 1 0 0 1 0 0 1 0 
0 1 0 0 1 0 0 1 0 0 1 0 0 1 0 0 1 0 0 1 0 0 1 0 

0 1 0 0 1 0 0 1 0 0 1 0 0 1 0 0 1 0 0 1 0 0 1 0 
0 1 0 0 1 0 0 1 0 0 1 0 0 1 0 0 1 0 0 1 0 0 1 0 
0 1 0 0 1 0 0 1 0 0 1 0 0 1 0 0 1 0 0 1 0 0 1 0 
0 1 0 0 1 0 0 1 0 0 1 0 0 1 0 0 1 0 0 1 0 0 1 0 
0 1 0 0 1 0 0 1 0 0 1 0 0 1 0 0 1 0 7 25 65 5 48 144 
0 55 157 0 161 234 3 136 185 3 9 12 0 1 0 0 1 0 0 1 0 0 1 0 
0 1 0 0 1 0 0 1 0 0 1 0 0 1 0 0 1 0 0 1 0 0 1 0 
0 1 0 0 1 0 0 1 0 0 1 0 0 1 0 0 1 0 0 1 0 0 1 0 
0 1 0 0 1 0 0 1 0 0 1 0 0 1 0 0 1 0 0 1 0 0 1 0 
0 1 0 0 1 0 0 1 0 0 1 0 0 1 0 0 1 0 0 1 0 0 1 0 

0 1 0 0 1 0 0 1 0 0 1 0 0 1 0 0 1 0 0 1 0 0 1 0 
0 1 0 0 1 0 0 1 0 0 1 0 0 1 0 0 1 0 0 1 0 0 1 0 
0 1 0 0 1 0 0 1 0 0 1 0 0 1 0 0 1 0 0 1 0 0 1 0 
0 1 0 0 1 0 0 1 0 0 1 0 0 1 0 0 1 0 0 1 0 0 1 0 
0 1 0 0 1 0 0 1 0 0 1 0 0 1 0 0 1 0 0 28 74 5 48 144 
0 55 151 0 161 234 0 172 232 0 49 65 0 1 0 0 1 0 0 1 0 0 1 0 
0 1 0 0 1 0 0 1 0 0 1 0 0 1 0 0 1 0 0 1 0 0 1 0 
0 1 0 0 1 0 0 1 0 0 1 0 0 1 0 0 1 0 0 1 0 0 1 0 
0 1 0 0 1 0 0 1 0 0 1 0 0 1 0 0 1 0 0 1 0 0 1 0 
0 1 0 0 1 0 0 1 0 0 1 0 0 1 0 0 1 0 0 1 0 0 1 0 

0 1 0 0 1 0 0 1 0 0 1 0 0 1 0 0 1 0 0 1 0 0 1 0 
0 1 0 0 1 0 0 1 0 0 1 0 0 1 0 0 1 0 0 1 0 0 1 0 
0 1 0 0 1 0 0 1 0 0 1 0 0 1 0 0 1 0 0 1 0 0 1 0 
0 1 0 0 1 0 0 1 0 0 1 0 0 1 0 0 1 0 0 1 0 0 1 0 
0 1 0 0 1 0 0 1 0 0 1 0 0 1 0 0 6 9 0 46 117 5 48 144 
0 46 117 0 156 217 9 175 236 14 74 96 0 1 0 0 1 0 0 1 0 0 1 0 
0 1 0 0 1 0 0 1 0 0 1 0 0 1 0 0 1 0 0 1 0 0 1 0 
0 1 0 0 1 0 0 1 0 0 1 0 0 1 0 0 1 0 0 1 0 0 1 0 
0 1 0 0 1 0 0 1 0 0 1 0 0 1 0 0 1 0 0 1 0 0 1 0 
0 1 0 0 1 0 0 1 0 0 1 0 0 1 0 0 1 0 0 1 0 0 1 0 

0 1 0 0 1 0 0 1 0 0 1 0 0 1 0 0 1 0 0 1 0 0 1 0 
0 1 0 0 1 0 0 1 0 0 1 0 0 1 0 0 1 0 0 1 0 0 1 0 
0 1 0 0 1 0 0 1 0 0 1 0 0 1 0 0 1 0 0 1 0 0 1 0 
0 1 0 0 1 0 0 1 0 0 1 0 0 1 0 0 1 0 0 1 0 0 1 0 
0 1 0 0 1 0 0 1 0 0 1 0 0 1 0 3 0 6 6 53 132 5 48 144 
0 35 91 0 131 180 31 181 242 0 118 153 0 6 9 0 1 0 0 1 0 0 1 0 
0 1 0 0 1 0 0 1 0 0 1 0 0 1 0 0 1 0 0 1 0 0 1 0 
0 1 0 0 1 0 0 1 0 0 1 0 0 1 0 0 1 0 0 1 0 0 1 0 
0 1 0 0 1 0 0 1 0 0 1 0 0 1 0 0 1 0 0 1 0 0 1 0 
0 1 0 0 1 0 0 1 0 0 1 0 0 1 0 0 1 0 0 1 0 0 1 0 

0 1 0 0 1 0 0 1 0 0 1 0 0 1 0 0 1 0 0 1 0 0 1 0 
0 1 0 0 1 0 0 1 0 0 1 0 0 1 0 0 1 0 0 1 0 0 1 0 
0 1 0 0 1 0 0 1 0 0 1 0 0 1 0 0 1 0 0 1 0 0 1 0 
0 1 0 0 1 0 0 1 0 0 1 0 0 1 0 0 1 0 0 1 0 0 1 0 
0 1 0 0 1 0 0 1 0 0 1 0 0 1 0 0 12 33 20 63 146 5 48 144 
4 12 43 11 102 140 31 181 242 0 137 179 0 6 9 0 1 0 0 1 0 0 1 0 
0 1 0 0 1 0 0 1 0 0 1 0 0 1 0 0 1 0 0 1 0 0 1 0 
0 1 0 0 1 0 0 1 0 0 1 0 0 1 0 0 1 0 0 1 0 0 1 0 
0 1 0 0 1 0 0 1 0 0 1 0 0 1 0 0 1 0 0 1 0 0 1 0 
0 1 0 0 1 0 0 1 0 0 1 0 0 1 0 0 1 0 0 1 0 0 1 0 

0 1 0 0 1 0 0 1 0 0 1 0 0 1 0 0 1 0 0 1 0 0 1 0 
0 1 0 0 1 0 0 1 0 0 1 0 0 1 0 0 1 0 0 1 0 0 1 0 
0 1 0 0 1 0 0 1 0 0 1 0 0 1 0 0 1 0 0 1 0 0 1 0 
0 1 0 0 1 0 0 1 0 0 1 0 0 1 0 0 1 0 0 1 0 0 1 0 
0 1 0 0 1 0 0 1 0 0 1 0 0 1 0 0 31 64 0 67 156 0 41 129 
3 7 23 0 81 108 0 179 238 25 145 188 0 14 15 0 1 0 0 1 0 0 1 0 
0 1 0 0 1 0 0 1 0 0 1 0 0 1 0 0 1 0 0 1 0 0 1 0 
0 1 0 0 1 0 0 1 0 0 1 0 0 1 0 0 1 0 0 1 0 0 1 0 
0 1 0 0 1 0 0 1 0 0 1 0 0 1 0 0 1 0 0 1 0 0 1 0 
0 1 0 0 1 0 0 1 0 0 1 0 0 1 0 0 1 0 0 1 0 0 1 0 

0 1 0 0 1 0 0 1 0 0 1 0 0 1 0 0 1 0 0 1 0 0 1 0 
0 1 0 0 1 0 0 1 0 0 1 0 0 1 0 0 1 0 0 1 0 0 1 0 
0 1 0 0 1 0 0 1 0 0 1 0 0 1 0 0 1 0 0 1 0 0 1 0 
0 1 0 0 1 0 0 1 0 0 1 0 0 1 0 0 1 0 0 1 0 0 1 0 
0 1 0 0 1 0 0 1 0 0 1 0 0 1 0 0 44 84 0 67 156 0 30 91 
0 6 9 0 40 56 34 171 225 0 182 234 0 49 65 0 1 0 0 1 0 0 1 0 
0 1 0 0 1 0 0 1 0 0 1 0 0 1 0 0 1 0 0 1 0 0 1 0 
0 1 0 0 1 0 0 1 0 0 1 0 0 1 0 0 1 0 0 1 0 0 1 0 
0 1 0 0 1 0 0 1 0 0 1 0 0 1 0 0 1 0 0 1 0 0 1 0 
0 1 0 0 1 0 0 1 0 0 1 0 0 1 0 0 1 0 0 1 0 0 1 0 

0 1 0 0 1 0 0 1 0 0 1 0 0 1 0 0 1 0 0 1 0 0 1 0 
0 1 0 0 1 0 0 1 0 0 1 0 0 1 0 0 1 0 0 1 0 0 1 0 
0 1 0 0 1 0 0 1 0 0 1 0 0 1 0 0 1 0 0 1 0 0 1 0 
0 1 0 0 1 0 0 1 0 0 1 0 0 1 0 0 1 0 0 1 0 0 1 0 
0 1 0 0 1 0 0 1 0 0 1 0 0 6 9 0 74 136 17 71 161 1 29 80 
0 1 0 0 28 39 0 154 208 0 187 239 6 61 77 0 1 0 0 1 0 0 1 0 
0 1 0 0 1 0 0 1 0 0 1 0 0 1 0 0 1 0 0 1 0 0 1 0 
0 1 0 0 1 0 0 1 0 0 1 0 0 1 0 0 1 0 0 1 0 0 1 0 
0 1 0 0 1 0 0 1 0 0 1 0 0 1 0 0 1 0 0 1 0 0 1 0 
0 1 0 0 1 0 0 1 0 0 1 0 0 1 0 0 1 0 0 1 0 0 1 0 

0 1 0 0 1 0 0 1 0 0 1 0 0 1 0 0 1 0 0 1 0 0 1 0 
0 1 0 0 1 0 0 1 0 0 1 0 0 1 0 0 1 0 0 1 0 0 1 0 
0 1 0 0 1 0 0 1 0 0 1 0 0 1 0 0 1 0 0 1 0 0 1 0 
0 1 0 0 1 0 0 1 0 0 1 0 0 1 0 0 1 0 0 1 0 0 1 0 
0 1 0 0 1 0 0 1 0 0 1 0 0 6 9 0 74 136 0 67 156 0 24 63 
0 1 0 0 6 9 0 118 153 0 187 239 3 104 136 0 6 9 0 1 0 0 1 0 
0 1 0 0 1 0 0 1 0 0 1 0 0 1 0 0 1 0 0 1 0 0 1 0 
0 1 0 0 1 0 0 1 0 0 1 0 0 1 0 0 1 0 0 1 0 0 1 0 
0 1 0 0 1 0 0 1 0 0 1 0 0 1 0 0 1 0 0 1 0 0 1 0 
0 1 0 0 1 0 0 1 0 0 1 0 0 1 0 0 1 0 0 1 0 0 1 0 

0 1 0 0 1 0 0 1 0 0 1 0 0 1 0 0 1 0 0 1 0 0 1 0 
0 1 0 0 1 0 0 1 0 0 1 0 0 1 0 0 1 0 0 1 0 0 1 0 
0 1 0 0 1 0 0 1 0 0 1 0 0 1 0 0 1 0 0 1 0 0 1 0 
0 1 0 0 1 0 0 1 0 0 1 0 0 1 0 0 1 0 0 1 0 0 1 0 
0 1 0 0 1 0 0 1 0 0 1 0 0 30 47 5 95 170 20 63 146 1 10 28 
0 1 0 0 6 9 0 104 140 0 191 249 7 129 165 0 6 9 0 1 0 0 1 0 
0 1 0 0 1 0 0 1 0 0 1 0 0 1 0 0 1 0 0 1 0 0 1 0 
0 1 0 0 1 0 0 1 0 0 1 0 0 1 0 0 1 0 0 1 0 0 1 0 
0 1 0 0 1 0 0 1 0 0 1 0 0 1 0 0 1 0 0 1 0 0 1 0 
0 1 0 0 1 0 0 1 0 0 1 0 0 1 0 0 1 0 0 1 0 0 1 0 

0 1 0 0 1 0 0 1 0 0 1 0 0 1 0 0 1 0 0 1 0 0 1 0 
0 1 0 0 1 0 0 1 0 0 1 0 0 1 0 0 1 0 0 1 0 0 1 0 
0 1 0 0 1 0 0 1 0 0 1 0 0 1 0 0 1 0 0 1 0 0 1 0 
0 1 0 0 1 0 0 1 0 0 1 0 0 1 0 0 1 0 0 1 0 0 1 0 
0 1 0 0 1 0 0 1 0 0 1 0 0 38 61 0 99 181 0 66 148 3 7 23 
0 1 0 0 1 0 0 60 81 0 182 234 0 152 193 0 21 29 0 1 0 0 1 0 
0 1 0 0 1 0 0 1 0 0 1 0 0 1 0 0 1 0 0 1 0 0 1 0 
0 1 0 0 1 0 0 1 0 0 1 0 0 1 0 0 1 0 0 1 0 0 1 0 
0 1 0 0 1 0 0 1 0 0 1 0 0 1 0 0 1 0 0 1 0 0 1 0 
0 1 0 0 1 0 0 1 0 0 1 0 0 1 0 0 1 0 0 1 0 0 1 0 

0 1 0 0 1 0 0 1 0 0 1 0 0 1 0 0 1 0 0 1 0 0 1 0 
0 1 0 0 1 0 0 1 0 0 1 0 0 1 0 0 1 0 0 1 0 0 1 0 
0 1 0 0 1 0 0 1 0 0 1 0 0 1 0 0 1 0 0 1 0 0 1 0 
0 1 0 0 1 0 0 1 0 0 1 0 0 1 0 0 1 0 0 1 0 0 1 0 
0 1 0 0 1 0 0 1 0 0 6 9 0 63 101 0 99 181 6 45 102 3 0 6 
0 1 0 0 1 0 0 43 54 0 175 228 0 175 228 8 43 55 0 1 0 0 1 0 
0 1 0 0 1 0 0 1 0 0 1 0 0 1 0 0 1 0 0 1 0 0 1 0 
0 1 0 0 1 0 0 1 0 0 1 0 0 1 0 0 1 0 0 1 0 0 1 0 
0 1 0 0 1 0 0 1 0 0 1 0 0 1 0 0 1 0 0 1 0 0 1 0 
0 1 0 0 1 0 0 1 0 0 1 0 0 1 0 0 1 0 0 1 0 0 1 0 

0 1 0 0 1 0 0 1 0 0 1 0 0 1 0 0 1 0 0 1 0 0 1 0 
0 1 0 0 1 0 0 1 0 0 1 0 0 1 0 0 1 0 0 1 0 0 1 0 
0 1 0 0 1 0 0 1 0 0 1 0 0 1 0 0 1 0 0 1 0 0 1 0 
0 1 0 0 1 0 0 1 0 0 1 0 0 1 0 0 1 0 0 1 0 0 1 0 
0 1 0 0 1 0 0 1 0 0 6 9 7 97 147 9 103 185 3 43 94 0 3 6 
0 1 0 0 1 0 0 21 29 0 152 193 0 182 234 0 65 86 0 1 0 0 1 0 
0 1 0 0 1 0 0 1 0 0 1 0 0 1 0 0 1 0 0 1 0 0 1 0 
0 1 0 0 1 0 0 1 0 0 1 0 0 1 0 0 1 0 0 1 0 0 1 0 
0 1 0 0 1 0 0 1 0 0 1 0 0 1 0 0 1 0 0 1 0 0 1 0 
0 1 0 0 1 0 0 1 0 0 1 0 0 1 0 0 1 0 0 1 0 0 1 0 

0 1 0 0 1 0 0 1 0 0 1 0 0 1 0 0 1 0 0 1 0 0 1 0 
0 1 0 0 1 0 0 1 0 0 1 0 0 1 0 0 1 0 0 1 0 0 1 0 
0 1 0 0 1 0 0 1 0 0 1 0 0 1 0 0 1 0 0 1 0 0 1 0 
0 1 0 0 1 0 0 1 0 0 1 0 0 1 0 0 1 0 0 1 0 0 1 0 
0 1 0 0 1 0 0 1 0 3 9 12 0 107 163 5 95 170 0 31 64 0 1 0 
0 1 0 0 1 0 0 6 9 7 129 165 0 190 243 3 104 136 0 6 9 0 1 0 
0 1 0 0 1 0 0 1 0 0 1 0 0 1 0 0 1 0 0 1 0 0 1 0 
0 1 0 0 1 0 0 1 0 0 1 0 0 1 0 0 1 0 0 1 0 0 1 0 
0 1 0 0 1 0 0 1 0 0 1 0 0 1 0 0 1 0 0 1 0 0 1 0 
0 1 0 0 1 0 0 1 0 0 1 0 0 1 0 0 1 0 0 1 0 0 1 0 

0 1 0 0 1 0 0 1 0 0 1 0 0 1 0 0 1 0 0 1 0 0 1 0 
0 1 0 0 1 0 0 1 0 0 1 0 0 1 0 0 1 0 0 1 0 0 1 0 
0 1 0 0 1 0 0 1 0 0 1 0 0 1 0 0 1 0 0 1 0 0 1 0 
0 1 0 0 1 0 0 1 0 0 1 0 0 1 0 0 1 0 0 1 0 0 1 0 
0 1 0 0 1 0 0 1 0 0 63 90 8 130 199 3 91 160 0 16 31 0 1 0 
0 1 0 0 1 0 0 1 0 0 77 98 0 182 234 13 153 201 0 49 65 0 1 0 
0 1 0 0 1 0 0 1 0 0 1 0 0 1 0 0 1 0 0 1 0 0 1 0 
0 1 0 0 1 0 0 1 0 0 1 0 0 1 0 0 1 0 0 1 0 0 1 0 
0 1 0 0 1 0 0 1 0 0 1 0 0 1 0 0 1 0 0 1 0 0 1 0 
0 1 0 0 1 0 0 1 0 0 1 0 0 1 0 0 1 0 0 1 0 0 1 0 

0 1 0 0 1 0 0 1 0 0 1 0 0 1 0 0 1 0 0 1 0 0 1 0 
0 1 0 0 1 0 0 1 0 0 1 0 0 1 0 0 1 0 0 1 0 0 1 0 
0 1 0 0 1 0 0 1 0 0 1 0 0 1 0 0 1 0 0 1 0 0 1 0 
0 1 0 0 1 0 0 1 0 0 1 0 0 1 0 0 1 0 0 1 0 0 1 0 
0 1 0 0 6 9 6 58 80 0 130 185 0 137 204 0 71 120 0 6 9 0 1 0 
0 1 0 0 1 0 0 1 0 0 40 51 0 168 215 0 187 247 14 127 170 0 32 43 
0 1 0 0 1 0 0 1 0 0 1 0 0 1 0 0 1 0 0 1 0 0 1 0 
0 1 0 0 1 0 0 1 0 0 1 0 0 1 0 0 1 0 0 1 0 0 1 0 
0 1 0 0 1 0 0 1 0 0 1 0 0 1 0 0 1 0 0 1 0 0 1 0 
0 1 0 0 1 0 0 1 0 0 1 0 0 1 0 0 1 0 0 1 0 0 1 0 

0 1 0 0 1 0 0 1 0 0 1 0 0 1 0 0 1 0 0 1 0 0 1 0 
0 1 0 0 1 0 0 1 0 0 1 0 0 1 0 0 1 0 0 1 0 0 1 0 
0 1 0 0 1 0 0 1 0 0 1 0 0 1 0 0 1 0 0 1 0 0 1 0 
0 1 0 0 1 0 0 1 0 0 1 0 0 1 0 0 1 0 0 1 0 0 6 9 
0 27 34 3 104 136 0 156 217 0 154 222 0 107 163 0 38 61 0 1 0 0 1 0 
0 1 0 0 1 0 0 1 0 0 6 9 3 104 136 0 185 245 0 183 242 3 136 185 
0 63 90 0 11 19 0 1 0 0 1 0 0 1 0 0 1 0 0 1 0 0 1 0 
0 1 0 0 1 0 0 1 0 0 1 0 0 1 0 0 1 0 0 1 0 0 1 0 
0 1 0 0 1 0 0 1 0 0 1 0 0 1 0 0 1 0 0 1 0 0 1 0 
0 1 0 0 1 0 0 1 0 0 1 0 0 1 0 0 1 0 0 1 0 0 1 0 

0 1 0 0 1 0 0 1 0 0 1 0 0 1 0 0 1 0 0 1 0 0 1 0 
0 1 0 0 1 0 0 1 0 0 1 0 0 1 0 0 1 0 0 1 0 0 1 0 
0 1 0 0 1 0 0 1 0 0 1 0 0 1 0 0 1 0 0 1 0 0 1 0 
0 1 0 0 1 0 0 1 0 0 1 0 0 1 0 1 37 49 0 81 108 5 117 148 
13 153 201 0 183 242 9 175 236 9 124 173 1 43 66 0 1 0 0 1 0 0 1 0 
0 1 0 0 1 0 0 1 0 0 1 0 0 17 22 0 110 147 34 171 225 0 172 232 
0 144 205 7 97 147 0 44 84 0 24 63 1 10 28 0 1 0 0 1 0 0 1 0 
0 1 0 0 1 0 0 1 0 0 1 0 0 1 0 0 1 0 0 1 0 0 1 0 
0 1 0 0 1 0 0 1 0 0 1 0 0 1 0 0 1 0 0 1 0 0 1 0 
0 1 0 0 1 0 0 1 0 0 1 0 0 1 0 0 1 0 0 1 0 0 1 0 

0 1 0 0 1 0 0 1 0 0 1 0 0 1 0 0 1 0 0 1 0 0 1 0 
0 1 0 0 1 0 0 1 0 0 1 0 0 1 0 0 1 0 0 1 0 0 1 0 
0 1 0 0 1 0 0 1 0 0 1 0 0 1 0 0 1 0 0 1 0 0 1 0 
0 1 0 0 1 0 0 1 0 0 1 0 0 32 43 3 136 185 0 187 239 0 187 239 
0 187 247 0 162 216 0 98 130 1 26 39 0 1 0 0 1 0 0 1 0 0 1 0 
0 1 0 0 1 0 0 1 0 0 1 0 0 1 0 3 9 12 0 60 81 0 116 158 
0 144 205 8 130 199 0 99 181 0 65 161 0 30 91 0 6 9 0 1 0 0 1 0 
0 1 0 0 1 0 0 1 0 0 1 0 0 1 0 0 1 0 0 1 0 0 1 0 
0 1 0 0 1 0 0 1 0 0 1 0 0 1 0 0 1 0 0 1 0 0 1 0 
0 1 0 0 1 0 0 1 0 0 1 0 0 1 0 0 1 0 0 1 0 0 1 0 

0 1 0 0 1 0 0 1 0 0 1 0 0 1 0 0 1 0 0 1 0 0 1 0 
0 1 0 0 1 0 0 1 0 0 1 0 0 1 0 0 1 0 0 1 0 0 1 0 
0 1 0 0 1 0 0 1 0 0 1 0 0 1 0 0 1 0 0 1 0 0 1 0 
0 1 0 0 1 0 0 1 0 0 6 9 0 63 90 6 148 203 0 157 204 7 129 165 
0 77 98 0 32 43 0 6 9 0 1 0 0 1 0 0 1 0 0 1 0 0 1 0 
0 1 0 0 1 0 0 1 0 0 1 0 0 1 0 0 1 0 0 1 0 3 9 12 
0 47 69 0 73 111 0 71 140 6 53 132 0 28 100 1 10 28 0 1 0 0 1 0 
0 1 0 0 1 0 0 1 0 0 1 0 0 1 0 0 1 0 0 1 0 0 1 0 
0 1 0 0 1 0 0 1 0 0 1 0 0 1 0 0 1 0 0 1 0 0 1 0 
0 1 0 0 1 0 0 1 0 0 1 0 0 1 0 0 1 0 0 1 0 0 1 0 

0 1 0 0 1 0 0 1 0 0 1 0 0 1 0 0 1 0 0 1 0 0 1 0 
0 1 0 0 1 0 0 1 0 0 1 0 0 1 0 0 1 0 0 1 0 0 1 0 
0 1 0 0 1 0 0 1 0 0 1 0 0 1 0 0 1 0 0 1 0 0 1 0 
0 1 0 0 1 0 0 1 0 0 1 0 0 11 19 0 17 22 0 17 22 3 9 12 
0 1 0 0 1 0 0 1 0 0 1 0 0 1 0 0 1 0 0 1 0 0 1 0 
0 1 0 0 1 0 0 1 0 0 1 0 0 1 0 0 1 0 0 1 0 0 1 0 
0 1 0 0 3 6 0 11 19 0 11 19 3 3 16 0 1 0 0 1 0 0 1 0 
0 1 0 0 1 0 0 1 0 0 1 0 0 1 0 0 1 0 0 1 0 0 1 0 
0 1 0 0 1 0 0 1 0 0 1 0 0 1 0 0 1 0 0 1 0 0 1 0 
0 1 0 0 1 0 0 1 0 0 1 0 0 1 0 0 1 0 0 1 0 0 1 0 

0 1 0 0 1 0 0 1 0 0 1 0 0 1 0 0 1 0 0 1 0 0 1 0 
0 1 0 0 1 0 0 1 0 0 1 0 0 1 0 0 1 0 0 1 0 0 1 0 
0 1 0 0 1 0 0 1 0 0 1 0 0 1 0 0 1 0 0 1 0 0 1 0 
0 1 0 0 1 0 0 1 0 0 1 0 0 1 0 0 1 0 0 6 9 0 1 0 
0 1 0 0 1 0 0 1 0 0 1 0 0 1 0 0 1 0 0 1 0 0 1 0 
0 1 0 0 1 0 0 1 0 0 1 0 0 1 0 0 1 0 0 1 0 0 1 0 
0 1 0 0 1 0 0 1 0 0 6 9 0 1 0 0 1 0 0 1 0 0 1 0 
0 1 0 0 1 0 0 1 0 0 1 0 0 1 0 0 1 0 0 1 0 0 1 0 
0 1 0 0 1 0 0 1 0 0 1 0 0 1 0 0 1 0 0 1 0 0 1 0 
0 1 0 0 1 0 0 1 0 0 1 0 0 1 0 0 1 0 0 1 0 0 1 0 

0 1 0 0 1 0 0 1 0 0 1 0 0 1 0 0 1 0 0 1 0 0 1 0 
0 1 0 0 1 0 0 1 0 0 1 0 0 1 0 0 1 0 0 1 0 0 1 0 
0 1 0 0 1 0 0 1 0 0 1 0 0 1 0 0 1 0 0 1 0 0 1 0 
0 1 0 0 1 0 0 1 0 0 1 0 0 6 9 0 54 71 15 96 123 0 54 71 
0 6 9 0 1 0 0 1 0 0 1 0 0 1 0 0 1 0 0 1 0 0 1 0 
0 1 0 0 1 0 0 1 0 0 1 0 0 1 0 0 1 0 0 1 0 0 1 0 
0 1 0 3 9 12 3 52 85 0 63 101 0 30 47 0 6 9 0 1 0 0 1 0 
0 1 0 0 1 0 0 1 0 0 1 0 0 1 0 0 1 0 0 1 0 0 1 0 
0 1 0 0 1 0 0 1 0 0 1 0 0 1 0 0 1 0 0 1 0 0 1 0 
0 1 0 0 1 0 0 1 0 0 1 0 0 1 0 0 1 0 0 1 0 0 1 0 

0 1 0 0 1 0 0 1 0 0 1 0 0 1 0 0 1 0 0 1 0 0 1 0 
0 1 0 0 1 0 0 1 0 0 1 0 0 1 0 0 1 0 0 1 0 0 1 0 
0 1 0 0 1 0 0 1 0 0 1 0 0 1 0 0 1 0 0 1 0 0 1 0 
0 1 0 0 1 0 0 1 0 0 17 22 3 104 136 0 175 228 0 187 239 0 160 207 
6 93 119 3 9 12 0 1 0 0 1 0 0 1 0 0 1 0 0 1 0 0 1 0 
0 1 0 0 1 0 0 1 0 0 1 0 0 1 0 0 1 0 0 1 0 0 1 0 
1 26 39 0 85 123 8 130 199 8 130 199 0 119 181 2 64 97 0 6 9 0 1 0 
0 1 0 0 1 0 0 1 0 0 1 0 0 1 0 0 1 0 0 1 0 0 1 0 
0 1 0 0 1 0 0 1 0 0 1 0 0 1 0 0 1 0 0 1 0 0 1 0 
0 1 0 0 1 0 0 1 0 0 1 0 0 1 0 0 1 0 0 1 0 0 1 0 

0 1 0 0 1 0 0 1 0 0 1 0 0 1 0 0 1 0 0 1 0 0 1 0 
0 1 0 0 1 0 0 1 0 0 1 0 0 1 0 0 1 0 0 1 0 0 1 0 
0 1 0 0 1 0 0 1 0 0 1 0 0 1 0 0 1 0 0 1 0 0 1 0 
0 1 0 0 1 0 0 1 0 0 14 15 6 93 119 13 153 201 0 185 245 0 187 247 
0 179 238 0 104 140 1 37 49 0 1 0 0 1 0 0 1 0 0 1 0 0 1 0 
0 1 0 0 1 0 0 1 0 0 1 0 0 1 0 0 1 0 0 6 9 0 47 69 
2 120 175 0 149 215 9 144 212 0 149 215 0 96 139 1 43 66 0 6 9 0 1 0 
0 1 0 0 1 0 0 1 0 0 1 0 0 1 0 0 1 0 0 1 0 0 1 0 
0 1 0 0 1 0 0 1 0 0 1 0 0 1 0 0 1 0 0 1 0 0 1 0 
0 1 0 0 1 0 0 1 0 0 1 0 0 1 0 0 1 0 0 1 0 0 1 0 

0 1 0 0 1 0 0 1 0 0 1 0 0 1 0 0 1 0 0 1 0 0 1 0 
0 1 0 0 1 0 0 1 0 0 1 0 0 1 0 0 1 0 0 1 0 0 1 0 
0 1 0 0 1 0 0 1 0 0 1 0 0 1 0 0 1 0 0 1 0 0 1 0 
0 1 0 0 1 0 0 1 0 0 1 0 0 6 9 1 37 49 0 110 147 34 171 225 
0 185 245 0 183 242 0 137 179 0 44 60 0 1 0 0 1 0 0 1 0 0 1 0 
0 1 0 0 1 0 0 1 0 0 1 0 0 1 0 3 9 12 0 90 122 0 144 205 
11 159 226 11 159 226 0 130 185 0 68 98 3 9 12 0 1 0 0 1 0 0 1 0 
0 1 0 0 1 0 0 1 0 0 1 0 0 1 0 0 1 0 0 1 0 0 1 0 
0 1 0 0 1 0 0 1 0 0 1 0 0 1 0 0 1 0 0 1 0 0 1 0 
0 1 0 0 1 0 0 1 0 0 1 0 0 1 0 0 1 0 0 1 0 0 1 0 

0 1 0 0 1 0 0 1 0 0 1 0 0 1 0 0 1 0 0 1 0 0 1 0 
0 1 0 0 1 0 0 1 0 0 1 0 0 1 0 0 1 0 0 1 0 0 1 0 
0 1 0 0 1 0 0 1 0 0 17 22 0 6 9 0 1 0 0 1 0 0 1 0 
0 1 0 0 1 0 0 1 0 0 1 0 0 1 0 0 1 0 3 9 12 5 69 91 
0 154 208 0 183 242 0 183 242 0 140 187 0 44 60 0 1 0 0 1 0 0 1 0 
0 1 0 0 1 0 0 1 0 0 1 0 3 9 12 0 90 122 0 172 232 9 175 236 
0 172 232 0 131 180 0 51 73 0 1 0 0 1 0 0 1 0 0 1 0 0 1 0 
0 1 0 0 1 0 0 1 0 0 1 0 0 1 0 3 3 16 3 0 6 0 1 0 
0 1 0 0 1 0 0 1 0 0 1 0 0 1 0 0 1 0 0 1 0 0 1 0 
0 1 0 0 1 0 0 1 0 0 1 0 0 1 0 0 1 0 0 1 0 0 1 0 

0 1 0 0 1 0 0 1 0 0 1 0 0 1 0 0 1 0 0 1 0 0 1 0 
0 1 0 0 1 0 0 1 0 0 1 0 0 1 0 0 1 0 0 1 0 0 1 0 
0 1 0 0 1 0 0 40 56 9 124 173 10 113 156 0 70 96 0 32 43 0 6 9 
0 1 0 0 1 0 0 1 0 0 1 0 0 1 0 0 1 0 0 1 0 0 1 0 
0 65 86 3 136 185 0 172 232 0 172 232 0 131 180 6 58 80 0 6 9 0 1 0 
0 1 0 0 1 0 0 1 0 3 9 12 0 98 130 9 175 236 0 183 242 0 179 238 
0 104 140 3 23 31 0 1 0 0 1 0 0 1 0 0 1 0 0 1 0 0 1 0 
0 1 0 0 3 6 3 0 6 4 12 43 0 18 75 3 29 113 0 18 75 0 3 6 
0 1 0 0 1 0 0 1 0 0 1 0 0 1 0 0 1 0 0 1 0 0 1 0 
0 1 0 0 1 0 0 1 0 0 1 0 0 1 0 0 1 0 0 1 0 0 1 0 

0 1 0 0 1 0 0 1 0 0 1 0 0 1 0 0 1 0 0 1 0 0 1 0 
0 1 0 0 1 0 0 1 0 0 1 0 0 1 0 0 1 0 0 1 0 0 1 0 
0 1 0 0 21 29 9 124 173 10 173 240 10 173 240 10 173 240 0 156 217 11 102 140 
8 51 68 0 6 9 0 1 0 0 1 0 0 1 0 0 1 0 0 1 0 0 1 0 
0 1 0 0 28 39 0 104 147 0 162 229 0 162 229 0 130 185 0 40 56 0 1 0 
0 1 0 0 1 0 0 11 19 0 98 130 0 179 238 0 185 245 0 179 238 0 104 140 
0 17 22 0 1 0 0 1 0 0 1 0 0 1 0 0 1 0 0 1 0 0 1 0 
3 0 6 0 18 63 0 28 100 0 37 134 3 37 142 3 37 142 0 37 134 0 18 63 
0 1 0 0 1 0 0 1 0 0 1 0 0 1 0 0 1 0 0 1 0 0 1 0 
0 1 0 0 1 0 0 1 0 0 1 0 0 1 0 0 1 0 0 1 0 0 1 0 

0 1 0 0 1 0 0 1 0 0 1 0 0 1 0 0 1 0 0 1 0 0 1 0 
0 1 0 0 1 0 0 1 0 0 1 0 0 1 0 0 1 0 0 1 0 0 1 0 
0 6 9 0 90 122 10 173 240 0 179 245 0 179 245 0 179 245 0 179 245 0 179 245 
0 156 217 11 102 140 0 32 43 0 1 0 0 1 0 0 1 0 0 1 0 0 1 0 
0 1 0 0 1 0 0 21 29 0 96 139 0 149 215 0 149 215 2 108 158 2 35 52 
0 1 0 3 9 12 3 104 136 0 183 242 0 185 245 34 171 225 0 87 113 0 14 15 
0 1 0 0 1 0 0 1 0 0 1 0 0 1 0 0 1 0 3 0 6 0 14 49 
0 22 85 0 37 134 0 41 144 0 41 144 0 41 144 0 41 144 0 41 144 3 29 113 
0 12 33 0 1 0 0 1 0 0 1 0 0 1 0 0 1 0 0 1 0 0 1 0 
0 1 0 0 1 0 0 1 0 0 1 0 0 1 0 0 1 0 0 1 0 0 1 0 

0 1 0 0 1 0 0 1 0 0 1 0 0 1 0 0 1 0 0 1 0 0 1 0 
0 1 0 0 1 0 0 1 0 0 1 0 0 1 0 0 1 0 0 1 0 0 1 0 
8 51 68 0 156 217 0 179 245 0 179 245 0 179 245 0 179 245 0 179 245 0 179 245 
0 179 245 0 179 245 0 140 194 0 70 96 0 6 9 0 1 0 0 1 0 0 1 0 
0 1 0 0 1 0 0 1 0 0 21 29 12 85 128 8 130 199 8 130 199 7 97 147 
2 35 52 0 87 113 0 183 242 0 188 248 0 187 247 3 104 136 3 9 12 0 1 0 
0 1 0 0 1 0 0 1 0 0 1 0 0 1 0 1 10 28 0 30 91 0 37 134 
0 44 147 0 44 147 0 44 147 0 44 147 0 44 147 0 44 147 0 44 147 0 44 147 
0 28 100 3 3 16 0 1 0 0 1 0 0 1 0 0 1 0 0 1 0 0 1 0 
0 1 0 0 1 0 0 1 0 0 1 0 0 1 0 0 1 0 0 1 0 0 1 0 

0 1 0 0 1 0 0 1 0 0 1 0 0 1 0 0 1 0 0 1 0 0 1 0 
0 1 0 0 1 0 0 1 0 0 1 0 0 1 0 0 1 0 0 1 0 0 21 29 
0 131 180 0 179 245 0 179 245 0 179 245 0 179 245 0 179 245 0 179 245 0 179 245 
0 179 245 0 179 245 0 179 245 0 165 225 11 102 140 0 28 39 0 1 0 0 1 0 
0 1 0 0 1 0 0 1 0 0 1 0 2 16 26 0 71 120 0 113 187 26 109 185 
2 120 175 0 167 219 0 190 243 0 187 239 0 111 142 0 17 22 0 1 0 0 1 0 
0 1 0 0 1 0 0 1 0 0 3 6 4 12 43 0 36 105 5 48 144 5 48 144 
5 48 144 5 48 144 5 48 144 5 48 144 5 48 144 5 48 144 5 48 144 5 48 144 
0 51 140 0 18 63 0 3 6 0 1 0 0 1 0 0 1 0 0 1 0 0 1 0 
0 1 0 0 1 0 0 1 0 0 1 0 0 1 0 0 1 0 0 1 0 0 1 0 

0 1 0 0 1 0 0 1 0 0 1 0 0 1 0 0 1 0 0 1 0 0 1 0 
0 1 0 0 1 0 0 1 0 0 1 0 0 1 0 0 1 0 0 1 0 0 74 101 
9 175 236 0 179 245 0 179 245 0 179 245 0 179 245 0 179 245 0 179 245 0 179 245 
0 179 245 0 179 245 0 179 245 0 179 245 0 179 245 10 113 156 0 32 43 0 1 0 
0 1 0 0 1 0 0 1 0 0 1 0 0 1 0 2 23 46 0 71 147 0 99 181 
27 165 226 2 193 245 0 190 243 0 111 142 0 17 22 0 1 0 0 1 0 0 1 0 
0 1 0 0 1 0 3 0 6 7 25 65 0 51 140 0 55 151 0 55 151 0 55 151 
0 55 151 0 55 151 0 55 151 0 55 151 0 55 151 0 55 151 0 55 151 0 55 151 
0 55 151 7 48 131 3 7 23 0 1 0 0 1 0 0 1 0 0 1 0 0 1 0 
0 1 0 0 1 0 0 1 0 0 1 0 0 1 0 0 1 0 0 1 0 0 1 0 

0 1 0 0 1 0 0 1 0 0 1 0 0 1 0 0 1 0 0 1 0 0 1 0 
0 1 0 0 1 0 0 1 0 0 1 0 0 1 0 0 1 0 3 20 25 14 127 170 
31 181 242 31 181 242 31 181 242 31 181 242 31 181 242 31 181 242 31 181 242 31 181 242 
31 181 242 31 181 242 31 181 242 31 181 242 31 181 242 21 178 238 0 146 194 5 69 91 
0 1 0 0 1 0 0 1 0 0 1 0 0 1 0 0 1 0 0 31 64 21 124 197 
0 185 245 0 185 245 0 131 173 0 17 22 0 1 0 0 1 0 0 1 0 0 1 0 
0 1 0 3 0 6 7 25 65 0 51 140 0 61 156 0 61 156 0 61 156 0 61 156 
0 61 156 0 61 156 0 61 156 0 61 156 0 61 156 0 61 156 0 61 156 0 61 156 
0 61 156 0 55 151 0 28 74 3 0 6 0 1 0 0 1 0 0 1 0 0 1 0 
0 1 0 0 1 0 0 1 0 0 1 0 0 1 0 0 1 0 0 1 0 0 1 0 

0 1 0 0 1 0 0 1 0 0 1 0 0 1 0 0 1 0 0 1 0 0 1 0 
0 1 0 0 1 0 0 1 0 0 1 0 0 1 0 0 1 0 0 27 34 0 98 130 
0 146 194 0 162 216 0 183 242 0 185 245 0 185 245 0 185 245 0 185 245 0 185 245 
0 185 245 0 185 245 0 185 245 0 185 245 0 185 245 0 185 245 0 185 245 0 162 216 
6 61 77 0 1 0 0 1 0 0 1 0 0 1 0 0 1 0 0 6 9 11 102 140 
0 179 245 0 156 217 8 51 68 0 1 0 0 1 0 0 1 0 0 1 0 0 1 0 
0 6 9 0 32 71 20 63 146 0 65 161 0 65 161 0 65 161 0 65 161 0 65 161 
0 65 161 0 65 161 0 65 161 0 65 161 0 65 161 0 65 161 0 65 161 0 65 161 
6 53 132 0 46 117 0 24 63 0 6 9 0 1 0 0 1 0 0 1 0 0 1 0 
0 1 0 0 1 0 0 1 0 0 1 0 0 1 0 0 1 0 0 1 0 0 1 0 

0 1 0 0 1 0 0 1 0 0 1 0 0 1 0 0 1 0 0 1 0 0 1 0 
0 1 0 0 1 0 0 1 0 0 1 0 0 1 0 0 1 0 0 1 0 0 1 0 
0 17 22 0 32 43 0 98 130 25 145 188 0 175 228 0 187 247 0 187 247 0 187 247 
0 187 247 0 187 247 0 187 247 0 187 247 0 187 247 0 187 247 0 187 247 0 187 247 
0 131 173 0 27 34 0 1 0 0 1 0 0 1 0 0 1 0 0 1 0 0 28 39 
0 131 180 0 96 139 0 6 9 0 1 0 0 1 0 0 1 0 0 1 0 0 3 6 
0 32 71 20 63 146 17 71 161 17 71 161 17 71 161 17 71 161 17 71 161 17 71 161 
17 71 161 17 71 161 17 71 161 17 71 161 17 71 161 20 63 146 6 45 102 0 24 63 
3 7 23 0 11 19 0 1 0 0 1 0 0 1 0 0 1 0 0 1 0 0 1 0 
0 1 0 0 1 0 0 1 0 0 1 0 0 1 0 0 1 0 0 1 0 0 1 0 

0 1 0 0 1 0 0 1 0 0 1 0 0 1 0 0 1 0 0 1 0 0 1 0 
0 1 0 0 1 0 0 1 0 0 1 0 0 1 0 0 1 0 0 1 0 0 1 0 
0 1 0 0 1 0 0 3 6 0 17 22 6 61 77 0 131 173 0 187 239 2 193 245 
2 193 245 2 193 245 2 193 245 2 193 245 2 193 245 2 193 245 2 193 245 2 193 245 
0 190 243 0 118 153 0 27 34 0 1 0 0 1 0 0 1 0 0 1 0 0 1 0 
2 35 52 1 26 39 0 1 0 0 1 0 0 1 0 0 1 0 0 1 0 2 23 46 
20 63 140 0 76 165 0 76 165 0 76 165 0 76 165 0 76 165 0 76 165 0 76 165 
0 76 165 0 76 165 0 76 165 0 66 148 6 45 102 2 23 46 0 6 9 0 1 0 
0 1 0 0 1 0 0 1 0 0 1 0 0 1 0 0 1 0 0 1 0 0 1 0 
0 1 0 0 1 0 0 1 0 0 1 0 0 1 0 0 1 0 0 1 0 0 1 0 

0 1 0 0 1 0 0 1 0 0 1 0 0 1 0 0 1 0 0 1 0 0 1 0 
0 1 0 0 1 0 0 1 0 0 1 0 0 1 0 0 1 0 0 1 0 0 1 0 
0 1 0 0 1 0 0 1 0 0 1 0 0 1 0 0 27 34 15 96 123 4 177 224 
2 193 245 2 193 245 2 193 245 2 193 245 2 193 245 2 193 245 2 193 245 2 193 245 
2 193 245 0 190 243 15 96 123 0 1 0 0 1 0 0 1 0 0 1 0 0 1 0 
0 1 0 0 1 0 0 1 0 0 1 0 0 1 0 0 1 0 0 16 31 0 57 116 
0 82 168 14 80 170 14 80 170 14 80 170 14 80 170 14 80 170 14 80 170 14 80 170 
14 80 170 0 82 168 7 50 113 2 23 46 0 6 9 0 1 0 0 1 0 0 1 0 
0 1 0 0 1 0 0 1 0 0 1 0 0 1 0 0 1 0 0 1 0 0 1 0 
0 1 0 0 1 0 0 1 0 0 1 0 0 1 0 0 1 0 0 1 0 0 1 0 

0 1 0 0 1 0 0 1 0 0 1 0 0 1 0 0 1 0 0 1 0 0 1 0 
0 1 0 0 1 0 0 1 0 0 1 0 0 1 0 0 28 39 3 9 12 3 9 12 
0 6 9 0 1 0 0 1 0 0 1 0 0 1 0 0 1 0 0 6 9 6 61 77 
0 140 176 2 193 245 2 193 245 2 193 245 2 193 245 2 193 245 2 193 245 2 193 245 
2 193 245 2 193 245 4 177 224 0 54 71 0 1 0 0 1 0 0 1 0 0 1 0 
0 1 0 0 1 0 0 1 0 0 1 0 0 1 0 0 1 0 4 51 95 3 90 172 
3 90 172 3 90 172 3 90 172 3 90 172 3 90 172 3 90 172 3 90 172 3 90 172 
3 90 172 0 57 116 0 16 31 0 1 0 0 1 0 0 1 0 0 1 0 0 1 0 
0 1 0 3 0 6 3 0 6 0 12 33 3 3 16 0 1 0 0 1 0 0 1 0 
0 1 0 0 1 0 0 1 0 0 1 0 0 1 0 0 1 0 0 1 0 0 1 0 

0 1 0 0 1 0 0 1 0 0 1 0 0 1 0 0 1 0 0 1 0 0 1 0 
0 1 0 0 1 0 0 1 0 0 1 0 0 6 9 10 113 156 0 131 180 0 131 180 
11 102 140 1 37 49 0 11 19 0 1 0 0 1 0 0 1 0 0 1 0 0 1 0 
0 43 54 0 140 176 2 193 245 2 193 245 2 193 245 2 193 245 2 193 245 2 193 245 
2 193 245 2 193 245 2 193 245 7 129 165 3 20 25 0 1 0 0 1 0 0 1 0 
0 1 0 0 1 0 0 1 0 0 1 0 0 1 0 0 24 46 3 85 155 0 99 181 
0 99 181 0 99 181 0 99 181 0 99 181 0 99 181 0 99 181 0 99 181 5 95 170 
0 44 84 0 11 19 0 1 0 0 1 0 0 1 0 0 1 0 0 1 0 3 3 16 
0 14 49 0 22 85 8 22 100 3 28 126 2 19 70 3 0 6 0 1 0 0 1 0 
0 1 0 0 1 0 0 1 0 0 1 0 0 1 0 0 1 0 0 1 0 0 1 0 

0 1 0 0 1 0 0 1 0 0 1 0 0 1 0 0 1 0 0 1 0 0 1 0 
0 1 0 0 1 0 0 1 0 0 1 0 0 40 56 27 165 226 0 179 245 0 179 245 
0 179 245 0 156 217 9 124 173 0 70 96 0 6 9 0 1 0 0 1 0 0 1 0 
0 1 0 0 43 54 0 137 179 0 190 243 0 190 243 0 190 243 0 190 243 0 190 243 
0 190 243 0 190 243 0 190 243 0 187 239 0 87 113 0 1 0 0 1 0 0 1 0 
0 1 0 0 1 0 0 1 0 0 1 0 3 9 12 14 75 126 0 109 190 0 109 190 
0 109 190 0 109 190 0 109 190 0 109 190 0 109 190 0 109 190 0 109 190 0 57 102 
0 6 9 0 1 0 0 1 0 0 1 0 0 1 0 3 3 16 0 18 63 0 28 100 
0 37 134 3 37 142 3 37 142 3 37 142 0 28 100 3 0 6 0 1 0 0 1 0 
0 1 0 0 1 0 0 1 0 0 1 0 0 1 0 0 1 0 0 1 0 0 1 0 

0 1 0 0 1 0 0 1 0 0 1 0 0 1 0 0 1 0 0 1 0 0 1 0 
0 1 0 0 1 0 0 1 0 0 1 0 8 51 68 0 172 232 0 179 245 0 179 245 
0 179 245 0 179 245 0 179 245 0 172 232 11 102 140 1 37 49 0 1 0 0 1 0 
0 1 0 0 1 0 0 54 71 0 168 215 0 190 243 0 190 243 0 190 243 0 190 243 
0 190 243 0 190 243 0 190 243 0 190 243 0 152 193 3 23 31 0 1 0 0 1 0 
0 1 0 0 1 0 0 1 0 0 1 0 5 44 72 0 113 187 17 118 194 17 118 194 
17 118 194 17 118 194 17 118 194 17 118 194 17 118 194 17 118 194 14 75 126 2 16 26 
0 1 0 0 1 0 0 1 0 0 1 0 0 14 41 0 36 105 5 48 144 5 48 144 
5 48 144 5 48 144 5 48 144 5 48 144 5 40 124 1 10 28 0 1 0 0 1 0 
0 1 0 0 1 0 0 1 0 0 1 0 0 1 0 0 1 0 0 1 0 0 1 0 

0 1 0 0 1 0 0 1 0 0 1 0 0 1 0 0 1 0 0 1 0 0 1 0 
0 1 0 0 1 0 0 1 0 0 6 9 0 65 86 13 153 201 0 162 216 21 178 238 
31 181 242 31 181 242 31 181 242 31 181 242 21 178 238 14 127 170 1 37 49 0 1 0 
0 1 0 0 1 0 0 6 9 6 93 119 0 187 239 0 190 243 0 190 243 0 190 243 
0 190 243 0 190 243 0 190 243 0 190 243 0 182 234 0 60 81 0 1 0 0 1 0 
0 1 0 0 1 0 0 1 0 0 6 9 12 85 128 8 130 199 8 130 199 8 130 199 
8 130 199 8 130 199 8 130 199 8 130 199 8 130 199 0 107 163 0 30 47 0 1 0 
0 1 0 0 1 0 0 1 0 0 14 41 0 46 117 0 55 151 0 55 151 0 55 151 
0 55 151 0 55 151 0 55 151 7 48 131 0 46 117 1 10 28 0 1 0 0 1 0 
0 1 0 0 1 0 0 1 0 0 1 0 0 1 0 0 1 0 0 1 0 0 1 0 

0 1 0 0 1 0 0 1 0 0 1 0 0 1 0 0 1 0 0 1 0 0 1 0 
0 1 0 0 1 0 0 1 0 0 1 0 0 11 19 0 17 22 8 43 55 0 87 113 
0 137 179 0 179 238 0 185 245 0 185 245 0 185 245 0 185 245 0 131 173 0 40 51 
0 1 0 0 1 0 0 1 0 3 23 31 0 131 173 6 190 250 6 190 250 6 190 250 
6 190 250 6 190 250 6 190 250 6 190 250 6 190 250 11 116 153 0 6 9 0 1 0 
0 1 0 0 1 0 0 1 0 1 26 39 0 119 181 0 137 204 0 137 204 0 137 204 
0 137 204 0 137 204 0 137 204 0 137 204 0 130 192 1 55 84 0 1 0 0 1 0 
0 1 0 0 1 0 5 21 48 12 56 126 0 67 156 0 67 156 0 67 156 0 67 156 
20 63 140 0 35 91 7 25 65 0 12 33 0 11 19 0 1 0 0 1 0 0 1 0 
0 1 0 0 1 0 0 1 0 0 1 0 0 1 0 0 1 0 0 1 0 0 1 0 

0 1 0 0 1 0 0 1 0 0 1 0 0 1 0 0 1 0 0 1 0 0 1 0 
0 1 0 0 1 0 0 1 0 0 1 0 0 6 9 0 6 9 0 1 0 0 1 0 
0 21 29 0 77 98 0 157 204 2 193 245 2 193 245 2 193 245 2 193 245 0 111 142 
0 6 9 0 1 0 0 1 0 0 1 0 0 54 71 0 175 228 0 188 248 0 188 248 
0 188 248 0 188 248 0 188 248 0 188 248 0 188 248 0 167 219 1 37 49 0 1 0 
0 1 0 0 1 0 0 1 0 1 55 84 0 137 204 0 140 208 0 140 208 0 140 208 
0 140 208 0 140 208 0 140 208 0 140 208 7 97 147 0 11 19 0 1 0 0 1 0 
0 1 0 2 23 46 12 56 126 0 76 165 0 76 165 0 76 165 0 76 165 7 50 113 
5 21 48 0 6 9 0 1 0 3 0 6 3 0 6 0 1 0 0 1 0 0 1 0 
0 1 0 0 1 0 0 1 0 0 1 0 0 1 0 0 1 0 0 1 0 0 1 0 

0 1 0 0 1 0 0 1 0 0 1 0 0 1 0 0 1 0 0 1 0 0 1 0 
0 1 0 0 1 0 0 1 0 0 6 9 6 77 110 10 113 156 0 70 96 0 32 43 
0 6 9 0 1 0 6 61 77 0 157 204 2 193 245 2 193 245 2 193 245 4 177 224 
0 77 98 0 1 0 0 1 0 0 1 0 3 9 12 11 116 153 0 187 247 0 187 247 
0 187 247 0 187 247 0 187 247 0 187 247 0 187 247 0 175 228 0 60 81 0 1 0 
0 1 0 0 1 0 0 6 9 0 96 139 9 144 212 9 144 212 9 144 212 9 144 212 
9 144 212 9 144 212 9 144 212 0 137 204 0 59 86 0 1 0 0 1 0 0 1 0 
0 6 9 0 57 116 19 94 177 19 94 177 19 94 177 3 90 172 11 44 89 0 6 9 
0 1 0 3 0 6 4 12 43 0 18 75 0 22 85 3 7 23 0 1 0 0 1 0 
0 1 0 0 1 0 0 1 0 0 1 0 0 1 0 0 1 0 0 1 0 0 1 0 

0 1 0 0 1 0 0 1 0 0 1 0 0 1 0 0 1 0 0 1 0 0 1 0 
0 1 0 0 1 0 0 1 0 0 6 9 10 113 156 27 165 226 0 172 232 0 156 217 
0 90 122 0 17 22 0 1 0 6 61 77 0 157 204 0 190 243 0 190 243 0 190 243 
0 140 176 3 23 31 0 1 0 0 1 0 0 1 0 5 69 91 0 183 242 0 185 245 
0 185 245 0 185 245 0 185 245 0 185 245 0 185 245 0 185 245 0 104 140 0 6 9 
0 1 0 0 1 0 1 26 39 0 130 185 0 149 215 0 149 215 0 149 215 0 149 215 
0 149 215 0 149 215 0 149 215 2 108 158 0 11 19 0 1 0 0 1 0 0 3 6 
3 52 85 0 113 187 26 109 185 26 109 185 0 113 187 0 57 102 0 6 9 0 1 0 
4 12 43 0 36 105 5 48 144 5 48 144 5 40 124 1 10 28 0 1 0 0 1 0 
0 1 0 0 1 0 0 1 0 0 1 0 0 1 0 0 1 0 0 1 0 0 1 0 

0 1 0 0 1 0 0 1 0 0 1 0 0 1 0 0 1 0 0 1 0 0 1 0 
0 1 0 0 1 0 0 1 0 0 1 0 0 32 43 0 70 96 14 127 170 0 172 232 
0 179 238 14 127 170 1 37 49 0 1 0 0 77 98 0 182 234 0 190 243 0 190 243 
0 187 239 14 74 96 0 1 0 0 1 0 0 1 0 0 27 34 13 153 201 0 185 245 
0 185 245 0 185 245 0 185 245 0 185 245 0 185 245 0 185 245 0 131 173 3 9 12 
0 1 0 0 1 0 2 35 52 0 144 205 0 154 222 0 154 222 0 154 222 0 154 222 
0 154 222 0 154 222 0 154 222 0 85 123 0 6 9 0 1 0 0 1 0 0 17 22 
0 107 163 8 130 199 8 130 199 8 130 199 0 107 163 0 16 31 0 1 0 5 21 48 
6 53 132 0 65 161 6 53 132 0 28 74 0 14 41 0 6 9 0 1 0 0 1 0 
0 1 0 0 1 0 0 1 0 0 1 0 0 1 0 0 1 0 0 1 0 0 1 0 

0 1 0 0 1 0 0 1 0 0 1 0 0 1 0 0 1 0 0 1 0 0 1 0 
0 1 0 0 1 0 0 1 0 0 1 0 0 1 0 0 1 0 0 11 19 14 74 96 
0 168 215 0 190 243 0 111 142 3 9 12 0 17 22 0 131 173 0 188 248 0 188 248 
0 188 248 0 137 179 0 17 22 0 1 0 0 1 0 0 14 15 0 131 173 0 185 245 
0 185 245 0 185 245 0 185 245 0 185 245 0 185 245 0 185 245 0 167 219 0 27 34 
0 1 0 0 3 6 0 63 90 0 156 217 11 159 226 11 159 226 11 159 226 11 159 226 
11 159 226 11 159 226 0 154 222 0 51 73 0 1 0 0 1 0 0 1 0 1 43 66 
0 130 192 0 140 208 0 140 208 0 137 204 2 64 97 0 6 9 2 23 46 0 71 140 
0 82 168 3 43 94 1 10 28 3 0 6 0 1 0 0 1 0 0 1 0 0 1 0 
0 1 0 0 1 0 0 1 0 0 1 0 0 1 0 0 1 0 0 1 0 0 1 0 

0 1 0 0 1 0 0 1 0 0 1 0 0 1 0 0 1 0 0 1 0 0 1 0 
0 1 0 0 1 0 0 1 0 0 1 0 0 1 0 0 1 0 0 1 0 0 3 6 
0 77 98 0 168 215 0 182 234 0 77 98 0 1 0 0 81 108 0 183 242 0 185 245 
0 185 245 0 167 219 8 43 55 0 1 0 0 1 0 0 1 0 0 90 122 0 179 238 
0 185 245 0 185 245 0 185 245 0 185 245 0 185 245 0 185 245 0 167 219 0 27 34 
0 1 0 0 6 9 0 104 147 0 166 232 0 166 232 0 166 232 0 166 232 0 166 232 
0 166 232 0 166 232 0 156 217 0 44 60 0 1 0 0 1 0 0 1 0 6 77 110 
0 149 215 0 149 215 0 149 215 2 120 175 0 21 29 0 6 9 0 71 120 0 113 187 
0 71 120 0 11 19 0 1 0 0 1 0 0 1 0 0 1 0 0 1 0 0 1 0 
0 1 0 0 1 0 0 1 0 0 1 0 0 1 0 0 1 0 0 1 0 0 1 0 

0 1 0 0 1 0 0 1 0 0 1 0 0 1 0 0 1 0 0 1 0 0 1 0 
0 1 0 0 1 0 0 1 0 0 1 0 0 1 0 0 1 0 0 1 0 0 1 0 
0 1 0 0 110 147 0 188 248 14 127 170 3 9 12 0 32 43 0 162 216 0 185 245 
0 185 245 0 183 242 0 70 96 0 1 0 0 1 0 0 1 0 0 74 101 0 179 238 
0 185 245 0 185 245 0 185 245 0 185 245 0 185 245 0 185 245 0 167 219 0 32 43 
0 1 0 0 6 9 0 104 147 0 166 232 0 166 232 0 166 232 0 166 232 0 166 232 
0 166 232 0 166 232 9 124 173 3 9 12 0 1 0 0 1 0 3 9 12 0 112 160 
0 154 222 0 154 222 0 154 222 2 108 158 0 6 9 2 35 52 0 130 192 0 130 192 
2 35 52 0 1 0 0 1 0 0 1 0 0 1 0 0 1 0 0 1 0 0 1 0 
0 1 0 0 1 0 0 1 0 0 1 0 0 1 0 0 1 0 0 1 0 0 1 0 

0 1 0 0 1 0 0 1 0 0 1 0 0 1 0 0 1 0 0 1 0 0 1 0 
0 1 0 0 1 0 0 1 0 0 1 0 0 1 0 0 1 0 0 1 0 0 1 0 
0 1 0 0 60 81 0 175 228 0 146 194 0 17 22 3 9 12 0 146 194 0 183 242 
0 183 242 0 179 238 5 69 91 0 1 0 0 1 0 0 1 0 0 74 101 0 179 238 
0 183 242 0 183 242 0 183 242 0 183 242 0 183 242 0 183 242 0 179 238 0 65 86 
0 1 0 0 6 9 0 110 147 0 172 232 0 172 232 0 172 232 0 172 232 0 172 232 
0 172 232 0 172 232 0 131 180 3 9 12 0 1 0 0 1 0 0 21 29 0 140 194 
0 166 232 0 166 232 0 166 232 6 77 110 0 1 0 0 63 90 0 154 222 0 130 185 
0 17 22 0 1 0 0 1 0 0 1 0 0 1 0 0 1 0 0 1 0 0 1 0 
0 1 0 0 1 0 0 1 0 0 1 0 0 1 0 0 1 0 0 1 0 0 1 0 

0 1 0 0 1 0 0 1 0 0 1 0 0 1 0 0 1 0 0 1 0 0 1 0 
0 1 0 0 1 0 0 1 0 0 1 0 0 1 0 0 1 0 0 1 0 0 1 0 
0 1 0 0 32 43 0 162 216 0 175 228 0 54 71 0 14 15 0 140 187 0 183 242 
0 183 242 0 179 238 0 70 96 0 1 0 0 1 0 0 1 0 0 74 101 21 178 238 
0 183 242 0 183 242 0 183 242 0 183 242 0 183 242 0 183 242 0 183 242 0 90 122 
0 1 0 0 6 9 0 110 147 21 178 238 21 178 238 21 178 238 21 178 238 21 178 238 
21 178 238 21 178 238 14 127 170 3 9 12 0 1 0 0 1 0 0 21 29 6 148 203 
9 175 236 9 175 236 0 172 232 8 51 68 0 1 0 0 70 96 0 172 232 11 102 140 
0 6 9 0 1 0 0 1 0 0 1 0 0 1 0 0 1 0 0 1 0 0 1 0 
0 1 0 0 1 0 0 1 0 0 1 0 0 1 0 0 1 0 0 1 0 0 1 0 

0 1 0 0 1 0 0 1 0 0 1 0 0 1 0 0 1 0 0 1 0 0 1 0 
0 1 0 0 1 0 0 1 0 0 1 0 0 1 0 0 1 0 0 1 0 0 1 0 
0 1 0 0 28 39 6 148 203 0 156 217 1 37 49 3 9 12 3 136 185 9 175 236 
9 175 236 0 172 232 5 69 91 0 1 0 0 1 0 0 1 0 0 70 96 9 175 236 
21 178 238 21 178 238 21 178 238 21 178 238 21 178 238 21 178 238 21 178 238 0 90 122 
0 1 0 0 6 9 11 116 153 0 183 242 0 183 242 0 183 242 0 183 242 0 183 242 
0 183 242 0 183 242 0 140 187 3 9 12 0 1 0 0 1 0 3 20 25 0 154 208 
0 183 242 0 183 242 9 175 236 0 54 71 0 1 0 0 74 101 0 179 238 0 110 147 
0 6 9 0 1 0 0 1 0 0 1 0 0 1 0 0 1 0 0 1 0 0 1 0 
0 1 0 0 1 0 0 1 0 0 1 0 0 1 0 0 1 0 0 1 0 0 1 0 

0 1 0 0 1 0 0 1 0 0 1 0 0 1 0 0 1 0 0 1 0 0 1 0 
0 1 0 0 1 0 0 1 0 0 1 0 0 1 0 0 1 0 0 1 0 0 1 0 
0 1 0 0 47 69 0 144 205 0 112 160 0 6 9 3 9 12 9 124 173 0 166 232 
0 166 232 0 166 232 0 63 90 0 1 0 0 1 0 0 1 0 0 70 96 0 172 232 
0 172 232 0 172 232 0 172 232 0 172 232 0 172 232 0 172 232 0 172 232 0 65 86 
0 1 0 0 6 9 11 116 153 0 183 242 0 183 242 0 183 242 0 183 242 0 183 242 
0 183 242 0 183 242 0 137 179 3 9 12 0 1 0 0 1 0 3 20 25 13 153 201 
0 183 242 0 183 242 0 179 238 0 81 108 0 1 0 5 69 91 0 183 242 13 153 201 
0 17 22 0 1 0 0 1 0 0 1 0 0 1 0 0 1 0 0 1 0 0 1 0 
0 1 0 0 1 0 0 1 0 0 1 0 0 1 0 0 1 0 0 1 0 0 1 0 

0 1 0 0 1 0 0 1 0 0 1 0 0 1 0 0 1 0 0 1 0 0 1 0 
0 1 0 0 1 0 0 1 0 0 1 0 0 1 0 0 1 0 0 1 0 0 1 0 
0 6 9 0 82 132 0 137 204 0 85 123 0 6 9 1 26 39 0 130 185 0 154 222 
0 154 222 0 154 222 6 58 80 0 1 0 0 1 0 0 1 0 0 70 96 27 165 226 
27 165 226 27 165 226 27 165 226 27 165 226 27 165 226 27 165 226 6 148 203 0 28 39 
0 1 0 0 6 9 11 116 153 0 185 245 0 185 245 0 185 245 0 185 245 0 185 245 
0 185 245 0 185 245 13 153 201 0 27 34 0 1 0 0 1 0 0 1 0 0 110 147 
0 185 245 0 185 245 0 185 245 0 131 173 0 6 9 0 32 43 0 160 207 0 167 219 
0 54 71 0 1 0 0 1 0 0 1 0 0 1 0 0 1 0 0 1 0 0 1 0 
0 1 0 0 1 0 0 1 0 0 1 0 0 1 0 0 1 0 0 1 0 0 1 0 

0 1 0 0 1 0 0 1 0 0 1 0 0 1 0 0 1 0 0 1 0 0 1 0 
0 1 0 0 1 0 0 1 0 0 1 0 0 1 0 0 1 0 0 1 0 0 1 0 
1 31 59 0 105 177 0 105 177 0 30 47 0 1 0 0 59 86 0 149 215 9 144 212 
9 144 212 2 120 175 3 23 31 0 1 0 0 1 0 0 1 0 6 77 110 11 159 226 
0 166 232 0 166 232 0 166 232 0 166 232 0 166 232 0 166 232 0 144 205 0 28 39 
0 1 0 0 6 9 11 116 153 0 185 245 0 185 245 0 185 245 0 185 245 0 185 245 
0 185 245 0 185 245 0 179 238 0 54 71 0 1 0 0 1 0 0 1 0 0 81 108 
0 187 247 0 187 247 0 187 247 13 153 201 3 23 31 3 9 12 5 117 148 0 187 239 
0 152 193 0 54 71 0 1 0 0 1 0 0 1 0 0 1 0 0 1 0 0 1 0 
0 1 0 0 1 0 0 1 0 0 1 0 0 1 0 0 1 0 0 1 0 0 1 0 

0 1 0 0 1 0 0 1 0 0 1 0 0 1 0 0 1 0 0 1 0 0 1 0 
0 1 0 0 1 0 0 1 0 0 1 0 0 1 0 0 1 0 0 1 0 5 21 48 
0 71 147 0 82 168 3 43 94 0 6 9 3 9 12 12 85 128 0 137 204 0 137 204 
0 137 204 12 85 128 0 6 9 0 1 0 0 1 0 3 9 12 0 112 160 11 159 226 
11 159 226 11 159 226 11 159 226 11 159 226 11 159 226 11 159 226 0 139 200 3 23 31 
0 1 0 0 6 9 0 81 108 0 179 238 0 185 245 0 185 245 0 185 245 0 185 245 
0 185 245 0 185 245 0 179 238 5 69 91 0 1 0 0 1 0 0 1 0 1 37 49 
0 167 219 0 188 248 0 188 248 0 183 242 0 87 113 0 6 9 0 32 43 0 152 193 
0 190 243 0 152 193 1 37 49 0 1 0 0 1 0 0 1 0 0 1 0 0 1 0 
0 1 0 0 1 0 0 1 0 0 1 0 0 1 0 0 1 0 0 1 0 0 1 0 

0 1 0 0 1 0 0 1 0 0 1 0 0 1 0 0 1 0 0 1 0 0 1 0 
0 1 0 0 1 0 0 1 0 0 1 0 0 1 0 0 1 0 0 6 9 10 34 86 
0 61 156 10 34 86 0 6 9 0 6 9 2 64 97 8 130 199 8 130 199 8 130 199 
8 130 199 1 55 84 0 1 0 0 1 0 0 1 0 0 30 47 0 139 200 0 154 222 
0 154 222 0 154 222 0 154 222 0 154 222 0 154 222 0 154 222 2 108 158 3 9 12 
0 1 0 0 1 0 8 43 55 0 179 238 0 185 245 0 185 245 0 185 245 0 185 245 
0 185 245 0 185 245 0 185 245 11 116 153 0 6 9 0 1 0 0 1 0 3 9 12 
7 129 165 0 190 243 0 190 243 0 190 243 0 152 193 0 43 54 0 1 0 0 65 86 
0 154 208 0 172 232 8 51 68 0 1 0 0 1 0 0 1 0 0 1 0 0 1 0 
0 1 0 0 1 0 0 1 0 0 1 0 0 1 0 0 1 0 0 1 0 0 1 0 

0 1 0 0 1 0 0 1 0 0 1 0 0 1 0 0 1 0 0 1 0 0 1 0 
0 1 0 0 1 0 0 1 0 0 1 0 0 1 0 0 1 0 0 1 0 3 7 23 
0 14 49 0 6 9 0 1 0 7 28 51 3 91 160 0 109 190 0 109 190 0 109 190 
0 83 145 2 16 26 0 1 0 0 1 0 0 1 0 0 68 98 9 144 212 0 149 215 
0 149 215 0 149 215 0 149 215 0 149 215 0 149 215 0 149 215 0 85 123 0 6 9 
0 1 0 0 1 0 1 37 49 0 162 216 0 187 247 0 187 247 0 187 247 0 187 247 
0 187 247 0 187 247 0 187 247 0 162 216 0 32 43 0 1 0 0 1 0 0 1 0 
6 61 77 0 182 234 0 190 243 0 190 243 0 190 243 0 140 176 0 43 54 0 1 0 
8 51 68 0 74 101 3 9 12 0 1 0 0 1 0 0 1 0 0 1 0 0 1 0 
0 1 0 0 1 0 0 1 0 0 1 0 0 1 0 0 1 0 0 1 0 0 1 0 

0 1 0 0 1 0 0 1 0 0 1 0 0 1 0 0 1 0 0 1 0 0 1 0 
0 1 0 0 1 0 0 1 0 0 1 0 0 1 0 0 1 0 0 1 0 0 1 0 
0 1 0 0 6 9 2 23 46 0 71 140 3 90 172 3 90 172 3 90 172 0 83 159 
1 31 59 0 1 0 0 1 0 0 1 0 0 11 19 2 108 158 9 144 212 9 144 212 
9 144 212 9 144 212 9 144 212 9 144 212 9 144 212 0 130 192 0 51 73 0 1 0 
0 1 0 0 1 0 0 6 9 14 127 170 0 187 247 0 187 247 0 187 247 0 187 247 
0 187 247 0 187 247 0 187 247 0 179 238 14 74 96 0 1 0 0 1 0 0 1 0 
3 9 12 7 129 165 2 193 245 2 193 245 2 193 245 2 193 245 0 140 176 0 43 54 
0 1 0 0 6 9 0 1 0 0 1 0 0 1 0 0 1 0 0 1 0 0 1 0 
0 1 0 0 1 0 0 1 0 0 1 0 0 1 0 0 1 0 0 1 0 0 1 0 

0 1 0 0 1 0 0 1 0 0 1 0 0 1 0 0 1 0 0 1 0 0 1 0 
0 1 0 0 1 0 0 1 0 0 1 0 0 1 0 0 1 0 0 1 0 0 1 0 
0 1 0 0 31 64 20 63 140 0 76 165 0 76 165 0 76 165 0 76 165 11 44 89 
0 6 9 0 1 0 0 1 0 0 1 0 2 64 97 0 137 204 0 140 208 0 140 208 
0 140 208 0 140 208 0 140 208 0 140 208 0 140 208 0 130 192 0 74 101 0 54 71 
0 54 71 8 51 68 8 51 68 0 116 158 0 179 238 0 188 248 0 188 248 0 188 248 
0 188 248 0 188 248 0 188 248 0 188 248 0 131 173 0 17 22 0 1 0 0 1 0 
0 1 0 6 61 77 0 157 204 2 193 245 2 193 245 2 193 245 2 193 245 0 137 179 
0 32 43 0 1 0 0 1 0 0 1 0 0 1 0 0 1 0 0 1 0 0 1 0 
0 1 0 0 1 0 0 1 0 0 1 0 0 1 0 0 1 0 0 1 0 0 1 0 

0 1 0 0 1 0 0 1 0 0 1 0 0 1 0 0 1 0 0 1 0 0 1 0 
0 1 0 0 1 0 0 1 0 0 1 0 0 1 0 0 1 0 0 1 0 0 1 0 
0 1 0 7 26 60 0 67 156 0 65 161 0 65 161 0 67 156 6 45 102 0 6 9 
0 1 0 0 1 0 0 1 0 0 11 19 2 108 158 0 137 204 0 137 204 0 137 204 
0 137 204 0 137 204 0 137 204 0 137 204 0 137 204 0 154 222 9 175 236 0 179 238 
9 175 236 0 172 232 0 165 225 27 165 226 0 185 245 0 191 249 0 191 249 0 191 249 
0 191 249 0 191 249 0 191 249 0 191 249 0 187 239 15 96 123 0 1 0 0 1 0 
0 1 0 0 1 0 6 61 77 13 153 201 0 185 245 0 185 245 0 185 245 0 131 173 
0 27 34 0 1 0 0 1 0 0 1 0 0 1 0 0 1 0 0 1 0 0 1 0 
0 1 0 0 1 0 0 1 0 0 1 0 0 1 0 0 1 0 0 1 0 0 1 0 

0 1 0 0 1 0 0 1 0 0 1 0 0 1 0 0 1 0 0 1 0 0 1 0 
0 1 0 0 1 0 0 1 0 0 1 0 0 1 0 0 1 0 0 1 0 0 1 0 
0 1 0 0 6 9 0 28 74 0 55 151 0 55 151 1 29 80 3 7 23 0 1 0 
0 1 0 0 1 0 0 6 9 1 55 84 8 130 199 8 130 199 8 130 199 8 130 199 
8 130 199 8 130 199 8 130 199 8 130 199 8 130 199 27 165 226 0 183 242 0 183 242 
0 183 242 9 175 236 0 172 232 0 166 232 0 179 238 0 187 239 0 190 243 0 190 243 
0 190 243 0 190 243 0 190 243 0 190 243 0 190 243 0 168 215 6 61 77 0 1 0 
0 1 0 0 1 0 0 1 0 0 60 81 0 146 194 31 181 242 0 154 208 8 43 55 
0 1 0 0 1 0 0 1 0 0 1 0 0 1 0 0 1 0 0 1 0 0 1 0 
0 1 0 0 1 0 0 1 0 0 1 0 0 1 0 0 1 0 0 1 0 0 1 0 

0 1 0 0 1 0 0 1 0 0 1 0 0 1 0 0 1 0 0 1 0 0 1 0 
0 1 0 0 1 0 0 1 0 0 1 0 0 1 0 0 1 0 0 1 0 0 1 0 
0 1 0 0 1 0 0 6 9 0 30 91 2 19 70 3 0 6 0 1 0 0 1 0 
0 1 0 0 3 6 5 44 72 0 105 177 0 120 194 0 120 194 0 120 194 0 120 194 
0 120 194 0 120 194 0 120 194 0 120 194 0 140 208 21 178 238 0 185 245 0 183 242 
0 183 242 9 175 236 0 172 232 0 166 232 0 166 232 0 187 239 0 190 243 0 190 243 
0 190 243 0 190 243 0 190 243 0 190 243 0 190 243 0 190 243 7 129 165 3 23 31 
0 1 0 0 1 0 0 1 0 0 1 0 8 51 68 0 116 158 0 74 101 0 1 0 
0 1 0 0 1 0 0 1 0 0 1 0 0 1 0 0 1 0 0 1 0 0 1 0 
0 1 0 0 1 0 0 1 0 0 1 0 0 1 0 0 1 0 0 1 0 0 1 0 

0 1 0 0 1 0 0 1 0 0 1 0 0 1 0 0 1 0 0 1 0 0 1 0 
0 1 0 0 1 0 0 1 0 0 1 0 0 1 0 0 1 0 0 1 0 0 1 0 
0 1 0 0 1 0 0 1 0 3 3 16 0 6 9 0 1 0 0 1 0 0 1 0 
0 1 0 0 16 31 0 83 145 0 109 190 0 109 190 0 109 190 0 109 190 0 109 190 
0 109 190 0 109 190 0 109 190 0 113 187 11 159 226 0 183 242 0 185 245 0 183 242 
0 183 242 9 175 236 0 172 232 0 166 232 0 166 232 0 179 238 0 190 243 0 190 243 
0 190 243 0 190 243 0 190 243 0 190 243 0 190 243 0 190 243 0 190 243 5 117 148 
0 27 34 0 1 0 0 1 0 0 1 0 0 1 0 3 9 12 0 1 0 0 1 0 
0 1 0 0 1 0 0 1 0 0 1 0 0 1 0 0 1 0 0 1 0 0 1 0 
0 1 0 0 1 0 0 1 0 0 1 0 0 1 0 0 1 0 0 1 0 0 1 0 

0 1 0 0 1 0 0 1 0 0 1 0 0 1 0 0 1 0 0 1 0 0 1 0 
0 1 0 0 1 0 0 1 0 0 1 0 0 1 0 0 1 0 0 1 0 0 1 0 
0 1 0 0 1 0 0 1 0 0 1 0 0 1 0 0 1 0 0 1 0 0 6 9 
5 44 72 0 74 136 0 99 181 0 99 181 0 99 181 0 99 181 0 99 181 0 99 181 
0 99 181 0 99 181 0 99 181 21 124 197 21 178 238 0 185 245 0 185 245 0 183 242 
0 183 242 9 175 236 0 172 232 0 166 232 0 166 232 27 165 226 0 182 234 2 193 245 
2 193 245 2 193 245 2 193 245 2 193 245 2 193 245 2 193 245 2 193 245 0 187 239 
0 118 153 3 23 31 0 1 0 0 1 0 0 1 0 0 1 0 0 1 0 0 1 0 
0 1 0 0 1 0 0 1 0 0 1 0 0 1 0 0 1 0 0 1 0 0 1 0 
0 1 0 0 1 0 0 1 0 0 1 0 0 1 0 0 1 0 0 1 0 0 1 0 

0 1 0 0 1 0 0 1 0 0 1 0 0 1 0 0 1 0 0 1 0 0 1 0 
0 1 0 0 1 0 0 1 0 0 1 0 0 1 0 0 1 0 0 1 0 0 1 0 
0 1 0 0 1 0 0 1 0 0 1 0 0 1 0 0 1 0 0 3 6 0 31 64 
0 83 159 3 90 172 3 90 172 3 90 172 3 90 172 3 90 172 3 90 172 3 90 172 
3 90 172 3 90 172 0 109 190 0 166 232 0 185 245 0 185 245 0 185 245 0 183 242 
0 183 242 9 175 236 0 172 232 0 166 232 0 166 232 11 159 226 0 172 232 2 193 245 
2 193 245 2 193 245 2 193 245 2 193 245 2 193 245 2 193 245 2 193 245 2 193 245 
0 190 243 5 117 148 0 17 22 0 1 0 0 1 0 0 1 0 0 1 0 0 1 0 
0 1 0 0 1 0 0 1 0 0 1 0 0 1 0 0 1 0 0 1 0 0 1 0 
0 1 0 0 1 0 0 1 0 0 1 0 0 1 0 0 1 0 0 1 0 0 1 0 

0 1 0 0 1 0 0 1 0 0 1 0 0 1 0 0 1 0 0 1 0 0 1 0 
0 1 0 0 1 0 0 1 0 0 1 0 0 1 0 0 1 0 0 1 0 0 1 0 
0 1 0 0 1 0 0 1 0 0 1 0 0 1 0 0 1 0 0 6 9 0 44 84 
0 82 168 14 80 170 14 80 170 14 80 170 14 80 170 14 80 170 14 80 170 14 80 170 
14 80 170 0 86 174 13 135 206 0 183 242 0 185 245 0 185 245 0 185 245 0 183 242 
0 183 242 9 175 236 0 172 232 0 166 232 0 166 232 0 154 222 0 162 229 0 179 238 
2 193 245 2 193 245 2 193 245 2 193 245 2 193 245 2 193 245 2 193 245 2 193 245 
2 193 245 25 145 188 8 43 55 0 1 0 0 1 0 0 1 0 0 1 0 0 1 0 
0 1 0 0 1 0 0 1 0 0 1 0 0 1 0 0 1 0 0 1 0 0 1 0 
0 1 0 0 1 0 0 1 0 0 1 0 0 1 0 0 1 0 0 1 0 0 1 0 

0 1 0 0 1 0 0 1 0 0 1 0 0 1 0 0 1 0 0 1 0 0 1 0 
0 1 0 0 1 0 0 1 0 0 1 0 0 1 0 0 1 0 0 1 0 0 1 0 
0 1 0 0 1 0 0 1 0 0 1 0 0 1 0 0 1 0 0 1 0 0 6 9 
0 44 84 0 71 147 0 76 165 0 76 165 0 76 165 0 76 165 0 76 165 0 76 165 
0 76 165 17 118 194 9 175 236 0 185 245 0 185 245 0 175 228 0 175 228 0 175 228 
0 172 232 0 165 225 0 165 225 0 156 217 11 159 226 0 154 222 0 154 222 0 156 217 
0 183 242 0 190 243 0 190 243 0 190 243 0 190 243 0 190 243 0 190 243 0 175 228 
0 111 142 1 37 49 0 1 0 0 1 0 0 1 0 0 1 0 0 1 0 0 1 0 
0 1 0 0 1 0 0 1 0 0 1 0 0 1 0 0 1 0 0 1 0 0 1 0 
0 1 0 0 1 0 0 1 0 0 1 0 0 1 0 0 1 0 0 1 0 0 1 0 

0 1 0 0 1 0 0 1 0 0 1 0 0 1 0 0 1 0 0 1 0 0 1 0 
0 1 0 0 1 0 0 1 0 0 1 0 0 1 0 0 1 0 0 1 0 0 1 0 
0 1 0 0 1 0 0 1 0 0 1 0 0 1 0 0 1 0 0 1 0 0 1 0 
0 6 9 2 16 26 11 44 89 0 66 148 17 71 161 17 71 161 17 71 161 17 71 161 
9 103 185 0 166 232 0 175 228 0 137 179 0 110 147 0 65 86 8 43 55 8 43 55 
0 44 60 0 40 56 0 40 56 0 44 60 6 77 110 0 104 147 0 130 192 9 144 212 
0 156 217 0 183 242 0 187 247 0 187 247 0 187 247 0 179 238 0 140 187 0 74 101 
0 6 9 0 1 0 0 1 0 0 1 0 0 1 0 0 1 0 0 1 0 0 1 0 
0 1 0 0 1 0 0 1 0 0 1 0 0 1 0 0 1 0 0 1 0 0 1 0 
0 1 0 0 1 0 0 1 0 0 1 0 0 1 0 0 1 0 0 1 0 0 1 0 

0 1 0 0 1 0 0 1 0 0 1 0 0 1 0 0 1 0 0 1 0 0 1 0 
0 1 0 0 1 0 0 1 0 0 1 0 0 1 0 0 1 0 0 1 0 0 1 0 
0 1 0 0 1 0 0 1 0 0 1 0 0 1 0 0 1 0 0 1 0 0 1 0 
0 1 0 0 1 0 0 6 9 1 31 59 0 57 116 0 66 148 0 65 161 19 94 177 
0 130 192 0 98 130 0 44 60 3 9 12 0 6 9 0 1 0 0 1 0 0 1 0 
0 1 0 0 1 0 0 1 0 0 1 0 0 6 9 0 6 9 1 26 39 0 59 86 
2 108 158 0 156 217 0 179 238 0 179 238 0 140 187 0 74 101 0 21 29 0 6 9 
0 1 0 0 1 0 0 1 0 0 1 0 0 1 0 0 1 0 0 1 0 0 1 0 
0 1 0 0 1 0 0 1 0 0 1 0 0 1 0 0 1 0 0 1 0 0 1 0 
0 1 0 0 1 0 0 1 0 0 1 0 0 1 0 0 1 0 0 1 0 0 1 0 

0 1 0 0 1 0 0 1 0 0 1 0 0 1 0 0 1 0 0 1 0 0 1 0 
0 1 0 0 1 0 0 1 0 0 1 0 0 1 0 0 1 0 0 1 0 0 1 0 
0 1 0 0 1 0 0 1 0 0 1 0 0 1 0 0 1 0 0 1 0 0 1 0 
0 1 0 0 1 0 0 1 0 0 1 0 0 6 9 0 16 31 0 32 71 3 52 85 
1 37 49 0 6 9 0 1 0 0 1 0 0 1 0 0 1 0 0 1 0 0 1 0 
0 1 0 0 1 0 0 1 0 0 1 0 0 1 0 0 1 0 0 1 0 0 1 0 
0 11 19 0 51 73 0 90 122 0 70 96 3 23 31 0 1 0 0 1 0 0 1 0 
0 1 0 0 1 0 0 1 0 0 1 0 0 1 0 0 1 0 0 1 0 0 1 0 
0 1 0 0 1 0 0 1 0 0 1 0 0 1 0 0 1 0 0 1 0 0 1 0 
0 1 0 0 1 0 0 1 0 0 1 0 0 1 0 0 1 0 0 1 0 0 1 0 

